<svg width="68" height="68" viewBox="0 0 68 68" fill="none" xmlns="http://www.w3.org/2000/svg">
<g clip-path="url(#clip0_147_422)">
<path d="M27.2 0.5H40.8C45.5687 0.5 49.1152 0.500389 51.9249 0.729951C54.7287 0.959035 56.7548 1.41385 58.4908 2.29839C61.5955 3.8803 64.1197 6.40448 65.7016 9.50916C66.5862 11.2452 67.041 13.2713 67.2701 16.0751C67.4996 18.8849 67.5 22.4313 67.5 27.2V40.8C67.5 45.5687 67.4996 49.1152 67.2701 51.9249C67.041 54.7287 66.5862 56.7548 65.7016 58.4908C64.1197 61.5955 61.5955 64.1197 58.4908 65.7016C56.7548 66.5862 54.7287 67.041 51.9249 67.2701C49.1151 67.4996 45.5687 67.5 40.8 67.5H27.2C22.4313 67.5 18.8849 67.4996 16.0751 67.2701C13.2713 67.041 11.2452 66.5862 9.50916 65.7016C6.40448 64.1197 3.8803 61.5955 2.29839 58.4908C1.41385 56.7548 0.959035 54.7287 0.729951 51.9249C0.500389 49.1151 0.5 45.5687 0.5 40.8V27.2C0.5 22.4313 0.500389 18.8849 0.729951 16.0751C0.959035 13.2713 1.41385 11.2452 2.29839 9.50916C3.8803 6.40448 6.40448 3.8803 9.50916 2.29839C11.2452 1.41385 13.2713 0.959035 16.0751 0.729951C18.8849 0.500389 22.4313 0.5 27.2 0.5Z" stroke="#E9EDEF" style="stroke:#E9EDEF;stroke:color(display-p3 0.9137 0.9294 0.9373);stroke-opacity:1;"/>
<path d="M19.2646 33.4324C19.73 32.6203 19.4448 31.592 18.6277 31.1355C17.8105 30.6791 16.7709 30.9674 16.3055 31.7795L10.8427 41.312C10.3773 42.1241 10.6624 43.1524 11.4796 43.6089C12.2967 44.0653 13.3364 43.777 13.8018 42.965L19.2646 33.4324Z" fill="#C3C7CB" style="fill:#C3C7CB;fill:color(display-p3 0.7647 0.7804 0.7961);fill-opacity:1;"/>
<path d="M31.0394 26.1233C31.5047 25.3112 31.2196 24.2829 30.4025 23.8265C29.5853 23.37 28.5457 23.6583 28.0803 24.4704L22.6175 34.0029C22.1521 34.815 22.4372 35.8434 23.2544 36.2998C24.0715 36.7563 25.1112 36.468 25.5765 35.6559L31.0394 26.1233Z" fill="#C3C7CB" style="fill:#C3C7CB;fill:color(display-p3 0.7647 0.7804 0.7961);fill-opacity:1;"/>
<path d="M49.1573 26.1238C49.6227 25.3117 49.3376 24.2834 48.5204 23.827C47.7033 23.3705 46.6636 23.6588 46.1983 24.4709L40.7354 34.0034C40.2701 34.8155 40.5552 35.8439 41.3723 36.3003C42.1895 36.7567 43.2291 36.4684 43.6945 35.6564L49.1573 26.1238Z" fill="#C3C7CB" style="fill:#C3C7CB;fill:color(display-p3 0.7647 0.7804 0.7961);fill-opacity:1;"/>
<path d="M37.3788 33.4324C37.8441 32.6203 37.559 31.592 36.7419 31.1355C35.9247 30.6791 34.8851 30.9674 34.4197 31.7795L28.9569 41.312C28.4915 42.1241 28.7766 43.1524 29.5938 43.6089C30.4109 44.0653 31.4506 43.777 31.916 42.965L37.3788 33.4324Z" fill="#C3C7CB" style="fill:#C3C7CB;fill:color(display-p3 0.7647 0.7804 0.7961);fill-opacity:1;"/>
<path d="M56.2645 33.4324C56.7299 32.6203 56.4447 31.592 55.6276 31.1355C54.8105 30.6791 53.7708 30.9674 53.3054 31.7795L47.8426 41.312C47.3772 42.1241 47.6624 43.1524 48.4795 43.6089C49.2966 44.0653 50.3363 43.777 50.8017 42.965L56.2645 33.4324Z" fill="#697680" style="fill:#697680;fill:color(display-p3 0.4118 0.4627 0.5020);fill-opacity:1;"/>
</g>
<defs>
<clipPath id="clip0_147_422">
<rect width="68" height="68" rx="17" fill="white" style="fill:white;fill-opacity:1;"/>
</clipPath>
</defs>
</svg>
