<svg width="68" height="68" viewBox="0 0 68 68" fill="none" xmlns="http://www.w3.org/2000/svg">
<g clip-path="url(#clip0_143_287)">
<g clip-path="url(#clip1_143_287)">
<path d="M54.4319 39.9344H56.1775C57.1112 39.9344 57.8687 39.1769 57.8687 38.2431V28.0656H56.1231C55.1894 28.0656 54.4319 28.8231 54.4319 29.7569V39.9344ZM58 25.2663C58 26.2938 57.1675 27.1263 56.14 27.1263C55.1125 27.1263 54.28 26.2938 54.28 25.2663C54.28 24.2388 55.1125 23.4063 56.14 23.4063C57.1675 23.4063 58 24.2388 58 25.2663ZM37.8062 22.6919H39.7075V38.2431C39.7075 39.1769 38.95 39.9344 38.0162 39.9344H36.115V24.3831C36.115 23.4494 36.8725 22.6919 37.8062 22.6919Z" fill="#C3C7CB" style="fill:#C3C7CB;fill:color(display-p3 0.7647 0.7804 0.7961);fill-opacity:1;"/>
<path d="M47.0894 37.3113C46.6112 37.3113 46.1837 37.2213 45.8031 37.0431C45.4225 36.8631 45.0925 36.6212 44.8075 36.3156C44.5244 36.01 44.3125 35.6594 44.1625 35.2637C44.0125 34.8681 43.9469 34.4463 43.9469 34V33.955C43.9469 33.5069 44.0088 33.0869 44.1494 32.6894C44.2919 32.2937 44.4869 31.9469 44.755 31.6487C45.0231 31.3506 45.3494 31.1144 45.73 30.9438C46.1106 30.7731 46.5475 30.6869 47.0406 30.6869C47.5038 30.6869 47.9294 30.7769 48.3175 30.955C48.7056 31.135 49.0412 31.3769 49.3244 31.6825C49.6075 31.9881 49.8231 32.3388 49.9712 32.7344C50.1212 33.13 50.1906 33.5519 50.1906 34V34.045C50.1906 34.4931 50.1231 34.915 49.9825 35.3088C49.84 35.7044 49.6394 36.0512 49.3712 36.3494C49.1031 36.6475 48.7769 36.8838 48.3962 37.0544C48.0156 37.2269 47.5787 37.3113 47.0856 37.3113M47.0913 27.7525C46.15 27.7525 45.2894 27.9175 44.4981 28.2456C43.7069 28.5738 43.0319 29.0219 42.4487 29.5881C41.8656 30.1563 41.4363 30.8163 41.1081 31.57C40.78 32.3238 40.6656 33.1338 40.6656 33.9981V34.0431C40.6656 34.9094 40.78 35.7175 41.1081 36.4713C41.4363 37.225 41.8375 37.8813 42.4131 38.44C42.9887 38.9988 43.6712 39.4394 44.4644 39.76C45.2556 40.0806 46.1144 40.2419 47.0406 40.2419C47.9819 40.2419 48.8369 40.0769 49.6281 39.7488C50.4194 39.4206 51.0962 38.9725 51.6775 38.4062C52.2606 37.84 52.6937 37.1781 53.0219 36.4263C53.35 35.6725 53.4681 34.8625 53.4681 33.9981V33.9531C53.4681 33.0887 53.35 32.2787 53.0219 31.525C52.6937 30.7712 52.2869 30.115 51.7131 29.5562C51.1375 28.9956 50.455 28.5569 49.6637 28.2362C48.8725 27.9156 48.0156 27.7544 47.0894 27.7544M11.8544 23.4081C10.8738 23.4081 10.0712 24.1656 10 25.1294V25.405C10.0712 26.3669 10.8738 27.1263 11.8544 27.1263C12.8819 27.1263 13.7144 26.2938 13.7144 25.2663C13.7144 24.2388 12.8819 23.4062 11.8544 23.4062" fill="#C3C7CB" style="fill:#C3C7CB;fill:color(display-p3 0.7647 0.7804 0.7961);fill-opacity:1;"/>
<path d="M10.1369 39.9342H11.8825C12.8163 39.9342 13.5738 39.1767 13.5738 38.2429V28.0654H11.8282C10.8944 28.0654 10.1369 28.8229 10.1369 29.7567V39.9342ZM22.1913 36.7898V45.3079H23.7794C24.7132 45.3079 25.4707 44.5504 25.4707 43.6167V40.1667C23.9707 39.4917 22.8513 38.3011 22.1913 36.7898Z" fill="#C3C7CB" style="fill:#C3C7CB;fill:color(display-p3 0.7647 0.7804 0.7961);fill-opacity:1;"/>
<path d="M34.69 31.525C34.3619 30.7713 33.94 30.115 33.3644 29.5563C32.7888 28.9956 32.1044 28.5569 31.3132 28.2363C30.5219 27.9156 29.6613 27.7544 28.735 27.7544C27.8088 27.7544 26.9257 27.9194 26.1344 28.2475C25.7519 28.4069 25.3938 28.5925 25.0582 28.8081C25.7238 29.6294 26.0557 30.7056 26.0913 32.0856C26.1813 31.93 26.2844 31.7838 26.4063 31.6488C26.6744 31.3506 27.0007 31.1144 27.3813 30.9438C27.7619 30.7731 28.2007 30.6869 28.6938 30.6869C29.1569 30.6869 29.5844 30.7769 29.9725 30.955C30.3607 31.135 30.7 31.3769 30.9832 31.6825C31.2663 31.9881 31.4894 32.3388 31.6394 32.7344C31.7894 33.13 31.8738 33.5519 31.8738 34V34.045C31.8738 34.4931 31.7913 34.915 31.6507 35.3088C31.5082 35.7044 31.2925 36.0513 31.0244 36.3494C30.7563 36.6475 30.43 36.8838 30.0494 37.0544C29.6763 37.2231 29.2507 37.3075 28.7707 37.3113V37.2963C28.5494 37.2963 28.3469 37.2831 28.1557 37.2625C27.9082 37.2194 27.6738 37.1463 27.4563 37.0431C27.0757 36.8631 26.7494 36.6213 26.4644 36.3156C25.4425 35.2131 25.5044 33.7244 25.5044 32.32C25.5044 30.9325 25.1725 29.8375 24.4619 29.0463C23.7513 28.255 22.7969 27.8594 21.4957 27.8594C21.0625 27.8594 20.68 27.9119 20.335 28.0169C19.9919 28.1219 19.6825 28.2644 19.3994 28.4444C19.1163 28.6244 18.8482 28.8306 18.6157 29.0631C18.3832 29.2956 18.2857 29.5413 17.9744 29.7963V28.0638H16.2288C15.295 28.0638 14.5375 28.8213 14.5375 29.755V39.9325H16.2832C17.2169 39.9325 17.9744 39.175 17.9744 38.2413V33.4019C17.9744 32.5975 18.1694 31.9919 18.55 31.5813C18.9307 31.1725 19.4444 30.9681 20.1025 30.9681C20.7607 30.9681 21.2819 31.1725 21.64 31.5813C22.1913 32.2113 22.1763 33.0738 22.1969 33.8613C22.2194 34.7538 22.3375 35.6444 22.6957 36.4675C23.0238 37.2213 23.4888 37.8775 24.0644 38.4363C24.64 38.995 25.3225 39.4356 26.1157 39.7563C26.9069 40.0769 27.7657 40.2381 28.6919 40.2381C29.6182 40.2381 30.4919 40.0731 31.2832 39.745C32.0744 39.4169 32.755 38.9688 33.3382 38.4025C33.9213 37.8363 34.3619 37.1744 34.69 36.4225C35.0182 35.6688 35.1532 34.8588 35.1532 33.9944V33.9494C35.1532 33.085 35.0182 32.275 34.69 31.5213V31.525Z" fill="#C3C7CB" style="fill:#C3C7CB;fill:color(display-p3 0.7647 0.7804 0.7961);fill-opacity:1;"/>
</g>
<path d="M27.2 0.5H40.8C45.5687 0.5 49.1152 0.500389 51.9249 0.729951C54.7287 0.959035 56.7548 1.41385 58.4908 2.29839C61.5955 3.8803 64.1197 6.40448 65.7016 9.50916C66.5862 11.2452 67.041 13.2713 67.2701 16.0751C67.4996 18.8849 67.5 22.4313 67.5 27.2V40.8C67.5 45.5687 67.4996 49.1152 67.2701 51.9249C67.041 54.7287 66.5862 56.7548 65.7016 58.4908C64.1197 61.5955 61.5955 64.1197 58.4908 65.7016C56.7548 66.5862 54.7287 67.041 51.9249 67.2701C49.1151 67.4996 45.5687 67.5 40.8 67.5H27.2C22.4313 67.5 18.8849 67.4996 16.0751 67.2701C13.2713 67.041 11.2452 66.5862 9.50916 65.7016C6.40448 64.1197 3.8803 61.5955 2.29839 58.4908C1.41385 56.7548 0.959035 54.7287 0.729951 51.9249C0.500389 49.1151 0.5 45.5687 0.5 40.8V27.2C0.5 22.4313 0.500389 18.8849 0.729951 16.0751C0.959035 13.2713 1.41385 11.2452 2.29839 9.50916C3.8803 6.40448 6.40448 3.8803 9.50916 2.29839C11.2452 1.41385 13.2713 0.959035 16.0751 0.729951C18.8849 0.500389 22.4313 0.5 27.2 0.5Z" stroke="#E9EDEF" style="stroke:#E9EDEF;stroke:color(display-p3 0.9137 0.9294 0.9373);stroke-opacity:1;"/>
</g>
<defs>
<clipPath id="clip0_143_287">
<rect width="68" height="68" rx="17" fill="white" style="fill:white;fill-opacity:1;"/>
</clipPath>
<clipPath id="clip1_143_287">
<rect width="48" height="24" fill="white" style="fill:white;fill-opacity:1;" transform="translate(10 22)"/>
</clipPath>
</defs>
</svg>
