<svg width="68" height="68" viewBox="0 0 68 68" fill="none" xmlns="http://www.w3.org/2000/svg">
<g clip-path="url(#clip0_153_103)">
<rect x="10" y="10" width="142" height="142" rx="8" stroke="#C3C7CB" style="stroke:#C3C7CB;stroke:color(display-p3 0.7647 0.7804 0.7961);stroke-opacity:1;" stroke-width="0.5"/>
<mask id="mask0_153_103" style="mask-type:alpha" maskUnits="userSpaceOnUse" x="15" y="14" width="132" height="132">
<path d="M41.6274 14.25H120.373C124.55 14.25 128.556 15.9094 131.51 18.8631L142.137 29.4905C145.091 32.4442 146.75 36.4503 146.75 40.6274V119.373C146.75 123.55 145.091 127.556 142.137 130.51L131.51 141.137C128.556 144.091 124.55 145.75 120.373 145.75H41.6274C37.4503 145.75 33.4442 144.091 30.4905 141.137L19.8631 130.51C16.9094 127.556 15.25 123.55 15.25 119.373V40.6274C15.25 36.4503 16.9094 32.4442 19.8631 29.4905L30.4905 18.8631C33.4442 15.9094 37.4503 14.25 41.6274 14.25Z" stroke="#D9DBDF" style="stroke:#D9DBDF;stroke:color(display-p3 0.8510 0.8588 0.8745);stroke-opacity:1;" stroke-width="0.5"/>
</mask>
<g mask="url(#mask0_153_103)">
<rect x="15" y="14" width="132" height="132" fill="#C3C7CB" style="fill:#C3C7CB;fill:color(display-p3 0.7647 0.7804 0.7961);fill-opacity:1;"/>
</g>
<circle cx="17.6569" cy="17.6569" r="3.75" transform="rotate(45 17.6569 17.6569)" stroke="#C3C7CB" style="stroke:#C3C7CB;stroke:color(display-p3 0.7647 0.7804 0.7961);stroke-opacity:1;" stroke-width="0.5"/>
<path fill-rule="evenodd" clip-rule="evenodd" d="M18.5599 16.0521C18.746 15.866 19.0478 15.866 19.2339 16.0521C19.42 16.2383 19.42 16.54 19.2339 16.7262V16.7262C18.972 16.988 19.0909 17.4351 19.4482 17.5324L19.569 17.5653C19.8212 17.6339 19.9716 17.8945 19.905 18.1473C19.8384 18.4 19.5799 18.5493 19.3276 18.4806L19.3057 18.4746C18.8897 18.3614 18.5082 18.743 18.6214 19.1589V19.1589C18.6901 19.4112 18.5408 19.6696 18.288 19.7363C18.0353 19.8029 17.7747 19.6525 17.706 19.4003L17.6681 19.2608C17.5757 18.9216 17.1513 18.8088 16.9027 19.0573V19.0573C16.7166 19.2435 16.4148 19.2435 16.2287 19.0573C16.0426 18.8712 16.0426 18.5694 16.2287 18.3833V18.3833C16.49 18.122 16.3714 17.6758 16.0148 17.5788L15.9587 17.5635C15.7065 17.4948 15.5561 17.2343 15.6227 16.9815C15.6893 16.7287 15.9478 16.5795 16.2001 16.6481V16.6481C16.5616 16.7466 16.8933 16.4149 16.7949 16.0533L16.7889 16.0314C16.7202 15.7791 16.8695 15.5206 17.1223 15.454C17.375 15.3874 17.6356 15.5378 17.7043 15.79L17.7144 15.8274C17.8165 16.2021 18.2853 16.3267 18.5599 16.0521V16.0521Z" fill="#C3C7CB" style="fill:#C3C7CB;fill:color(display-p3 0.7647 0.7804 0.7961);fill-opacity:1;"/>
<rect x="23" y="38" width="4" height="84" rx="2" fill="#C3C7CB" style="fill:#C3C7CB;fill:color(display-p3 0.7647 0.7804 0.7961);fill-opacity:1;"/>
<path d="M23 42H27" stroke="white" style="stroke:white;stroke-opacity:1;"/>
<path d="M23 45H27" stroke="white" style="stroke:white;stroke-opacity:1;"/>
<path d="M23 48H27" stroke="white" style="stroke:white;stroke-opacity:1;"/>
<path d="M23 51H27" stroke="white" style="stroke:white;stroke-opacity:1;"/>
<path d="M23 54H27" stroke="white" style="stroke:white;stroke-opacity:1;"/>
<path d="M23 57H27" stroke="white" style="stroke:white;stroke-opacity:1;"/>
<path d="M23 60H27" stroke="white" style="stroke:white;stroke-opacity:1;"/>
<path d="M23 63H27" stroke="white" style="stroke:white;stroke-opacity:1;"/>
<path d="M23 66H27" stroke="white" style="stroke:white;stroke-opacity:1;"/>
<path d="M43.1227 30.4365C41.8475 30.4365 41.0229 29.7264 41 28.6345L41.8781 28.6421C41.9315 29.2835 42.4202 29.6958 43.1303 29.6958C43.7641 29.6958 44.1764 29.4057 44.1764 28.9094C44.1764 28.4131 43.8099 28.2298 42.8249 28.0542C41.7254 27.8633 41.1222 27.451 41.1222 26.5653C41.1222 25.6337 41.8781 25 42.9852 25C44.1535 25 44.9247 25.649 44.9705 26.6493H44.0924C44.0313 26.0842 43.6037 25.7406 42.9852 25.7406C42.382 25.7406 42.0003 26.0155 42.0003 26.4966C42.0003 26.9852 42.3744 27.1456 43.3594 27.3212C44.4436 27.5044 45.0545 27.9549 45.0545 28.833C45.0545 29.7798 44.2604 30.4365 43.1227 30.4365Z" fill="#697680" style="fill:#697680;fill:color(display-p3 0.4118 0.4627 0.5020);fill-opacity:1;"/>
<path d="M48.5121 30.3907H46.7788V25.0458H48.5121C50.085 25.0458 50.986 26.1071 50.986 27.7106C50.986 29.3217 50.085 30.3907 48.5121 30.3907ZM47.6569 25.8094V29.6271H48.5121C49.5887 29.6271 50.0926 28.8865 50.0926 27.7106C50.0926 26.5424 49.5887 25.8094 48.5121 25.8094H47.6569Z" fill="#697680" style="fill:#697680;fill:color(display-p3 0.4118 0.4627 0.5020);fill-opacity:1;"/>
<path d="M53.5804 30.3907H52.7023V25.0458H53.5804V27.7335L55.8023 25.0458H56.8255L54.9319 27.3441L56.9706 30.3907H55.9321L54.3363 28.0389L53.5804 28.9247V30.3907Z" fill="#697680" style="fill:#697680;fill:color(display-p3 0.4118 0.4627 0.5020);fill-opacity:1;"/>
<g clip-path="url(#clip1_153_103)">
<path d="M88.1344 57.777C87.5268 57.777 86.9835 57.6608 86.4998 57.4307C86.0161 57.1982 85.5967 56.8858 85.2345 56.491C84.8747 56.0962 84.6055 55.6434 84.4148 55.1323C84.2242 54.6213 84.1408 54.0764 84.1408 53.5V53.4419C84.1408 52.863 84.2195 52.3205 84.3982 51.8071C84.5793 51.2961 84.8271 50.848 85.1678 50.463C85.5086 50.0779 85.9232 49.7727 86.4069 49.5523C86.8906 49.332 87.4458 49.2205 88.0725 49.2205C88.661 49.2205 89.2019 49.3368 89.6952 49.5669C90.1884 49.7994 90.6149 50.1118 90.9747 50.5066C91.3345 50.9013 91.6086 51.3542 91.7968 51.8652C91.9874 52.3762 92.0756 52.9212 92.0756 53.5V53.5581C92.0756 54.137 91.9898 54.6819 91.8111 55.1905C91.63 55.7015 91.375 56.1495 91.0343 56.5346C90.6936 56.9197 90.2789 57.2248 89.7952 57.4452C89.3115 57.668 88.7563 57.777 88.1296 57.777M88.1368 45.4303C86.9406 45.4303 85.8469 45.6434 84.8414 46.0673C83.8358 46.4911 82.978 47.0699 82.237 47.8013C81.4959 48.5352 80.9502 49.3877 80.5332 50.3613C80.1163 51.3348 79.9709 52.3811 79.9709 53.4976V53.5557C79.9709 54.6746 80.1163 55.7184 80.5332 56.692C80.9502 57.6656 81.4602 58.5133 82.1917 59.235C82.9232 59.9567 83.7905 60.5259 84.7985 60.94C85.804 61.3541 86.8954 61.5624 88.0725 61.5624C89.2686 61.5624 90.3552 61.3493 91.3607 60.9255C92.3663 60.5016 93.2265 59.9228 93.9652 59.1914C94.7062 58.46 95.2566 57.6051 95.6736 56.6339C96.0906 55.6603 96.2407 54.6141 96.2407 53.4976V53.4395C96.2407 52.323 96.0906 51.2767 95.6736 50.3031C95.2566 49.3295 94.7396 48.4819 94.0104 47.7602C93.2789 47.036 92.4116 46.4693 91.406 46.0552C90.4005 45.641 89.3115 45.4327 88.1344 45.4327M43.3566 39.8188C42.1104 39.8188 41.0905 40.7973 41 42.0421V42.3981C41.0905 43.6405 42.1104 44.6214 43.3566 44.6214C44.6624 44.6214 45.7204 43.5461 45.7204 42.2189C45.7204 40.8917 44.6624 39.8164 43.3566 39.8164" fill="#C3C7CB" style="fill:#C3C7CB;fill:color(display-p3 0.7647 0.7804 0.7961);fill-opacity:1;"/>
<path d="M41.174 61.1649H43.3923C44.579 61.1649 45.5416 60.1865 45.5416 58.9804V45.8345H43.3232C42.1366 45.8345 41.174 46.8129 41.174 48.019V61.1649ZM56.4931 57.1035V68.106H58.5113C59.6979 68.106 60.6606 67.1276 60.6606 65.9215V61.4653C58.7543 60.5934 57.3318 59.0555 56.4931 57.1035Z" fill="#C3C7CB" style="fill:#C3C7CB;fill:color(display-p3 0.7647 0.7804 0.7961);fill-opacity:1;"/>
<path d="M72.3769 50.303C71.9599 49.3294 71.4238 48.4818 70.6922 47.76C69.9607 47.0359 69.091 46.4692 68.0854 46.055C67.0799 45.6409 65.9862 45.4326 64.8091 45.4326C63.632 45.4326 62.5097 45.6457 61.5041 46.0696C61.018 46.2754 60.5629 46.5152 60.1364 46.7937C60.9823 47.8545 61.404 49.2446 61.4493 51.0271C61.5637 50.8261 61.6947 50.6372 61.8496 50.4629C62.1904 50.0778 62.605 49.7726 63.0887 49.5522C63.5724 49.3318 64.13 49.2204 64.7567 49.2204C65.3452 49.2204 65.8885 49.3367 66.3817 49.5668C66.875 49.7993 67.3063 50.1117 67.6661 50.5064C68.0259 50.9012 68.3094 51.3541 68.5001 51.8651C68.6907 52.3761 68.7979 52.9211 68.7979 53.4999V53.558C68.7979 54.1368 68.6931 54.6818 68.5144 55.1904C68.3333 55.7014 68.0592 56.1494 67.7185 56.5345C67.3777 56.9196 66.9631 57.2247 66.4794 57.4451C66.0052 57.6631 65.4644 57.7721 64.8544 57.7769V57.7575C64.5732 57.7575 64.3158 57.7406 64.0728 57.7139C63.7583 57.6582 63.4604 57.5638 63.184 57.4306C62.7003 57.1981 62.2857 56.8857 61.9235 56.4909C60.6249 55.0668 60.7035 53.1439 60.7035 51.3299C60.7035 49.5377 60.2817 48.1233 59.3786 47.1013C58.4756 46.0793 57.2627 45.5682 55.609 45.5682C55.0586 45.5682 54.5725 45.6361 54.1341 45.7717C53.698 45.9073 53.3049 46.0914 52.9451 46.3239C52.5852 46.5564 52.2445 46.8228 51.949 47.1231C51.6536 47.4234 51.5297 47.7407 51.1341 48.07V45.8322H48.9157C47.7291 45.8322 46.7664 46.8107 46.7664 48.0168V61.1627H48.9848C50.1715 61.1627 51.1341 60.1843 51.1341 58.9782V52.7273C51.1341 51.6883 51.3819 50.9061 51.8656 50.3757C52.3493 49.8477 53.0022 49.5837 53.8386 49.5837C54.675 49.5837 55.3374 49.8477 55.7925 50.3757C56.4931 51.1894 56.474 52.3035 56.5002 53.3207C56.5288 54.4735 56.6789 55.6239 57.134 56.6871C57.551 57.6607 58.142 58.5083 58.8735 59.23C59.605 59.9518 60.4724 60.5209 61.4803 60.935C62.4858 61.3492 63.5772 61.5575 64.7543 61.5575C65.9314 61.5575 67.0418 61.3443 68.0473 60.9205C69.0529 60.4967 69.9178 59.9179 70.6589 59.1864C71.3999 58.455 71.9599 57.6001 72.3769 56.6289C72.7939 55.6553 72.9654 54.6091 72.9654 53.4926V53.4345C72.9654 52.318 72.7939 51.2718 72.3769 50.2982V50.303Z" fill="#C3C7CB" style="fill:#C3C7CB;fill:color(display-p3 0.7647 0.7804 0.7961);fill-opacity:1;"/>
</g>
<path d="M27.2 0.5H40.8C45.5687 0.5 49.1152 0.500389 51.9249 0.729951C54.7287 0.959035 56.7548 1.41385 58.4908 2.29839C61.5955 3.8803 64.1197 6.40448 65.7016 9.50916C66.5862 11.2452 67.041 13.2713 67.2701 16.0751C67.4996 18.8849 67.5 22.4313 67.5 27.2V40.8C67.5 45.5687 67.4996 49.1152 67.2701 51.9249C67.041 54.7287 66.5862 56.7548 65.7016 58.4908C64.1197 61.5955 61.5955 64.1197 58.4908 65.7016C56.7548 66.5862 54.7287 67.041 51.9249 67.2701C49.1151 67.4996 45.5687 67.5 40.8 67.5H27.2C22.4313 67.5 18.8849 67.4996 16.0751 67.2701C13.2713 67.041 11.2452 66.5862 9.50916 65.7016C6.40448 64.1197 3.8803 61.5955 2.29839 58.4908C1.41385 56.7548 0.959035 54.7287 0.729951 51.9249C0.500389 49.1151 0.5 45.5687 0.5 40.8V27.2C0.5 22.4313 0.500389 18.8849 0.729951 16.0751C0.959035 13.2713 1.41385 11.2452 2.29839 9.50916C3.8803 6.40448 6.40448 3.8803 9.50916 2.29839C11.2452 1.41385 13.2713 0.959035 16.0751 0.729951C18.8849 0.500389 22.4313 0.5 27.2 0.5Z" stroke="#E9EDEF" style="stroke:#E9EDEF;stroke:color(display-p3 0.9137 0.9294 0.9373);stroke-opacity:1;"/>
</g>
<defs>
<clipPath id="clip0_153_103">
<rect width="68" height="68" rx="17" fill="white" style="fill:white;fill-opacity:1;"/>
</clipPath>
<clipPath id="clip1_153_103">
<rect width="61" height="31" fill="white" style="fill:white;fill-opacity:1;" transform="translate(41 38)"/>
</clipPath>
</defs>
</svg>
