<svg width="68" height="68" viewBox="0 0 68 68" fill="none" xmlns="http://www.w3.org/2000/svg">
<g clip-path="url(#clip0_153_371)">
<path d="M24.8691 12.25H136.131C138.387 12.25 140.065 12.2502 141.393 12.3588C142.719 12.4671 143.676 12.682 144.495 13.0994C145.961 13.8466 147.153 15.0388 147.901 16.5051C148.318 17.3243 148.533 18.2809 148.641 19.6067C148.75 20.9354 148.75 22.6127 148.75 24.8691V69.3894C148.75 71.6459 148.75 73.3231 148.641 74.6518C148.533 75.9776 148.318 76.9342 147.901 77.7534C147.153 79.2197 145.961 80.4119 144.495 81.1591C143.676 81.5765 142.719 81.7914 141.393 81.8997C140.065 82.0083 138.387 82.0085 136.131 82.0085H24.8691C22.6126 82.0085 20.9354 82.0083 19.6067 81.8997C18.2809 81.7914 17.3243 81.5765 16.5051 81.1591C15.0388 80.4119 13.8466 79.2197 13.0994 77.7534C12.682 76.9342 12.4671 75.9776 12.3588 74.6518C12.2502 73.3231 12.25 71.6458 12.25 69.3894V24.8691C12.25 22.6126 12.2502 20.9354 12.3588 19.6067C12.4671 18.2809 12.682 17.3243 13.0994 16.5051C13.8466 15.0388 15.0388 13.8466 16.5051 13.0994C17.3243 12.682 18.2809 12.4671 19.6067 12.3588C20.9354 12.2502 22.6127 12.25 24.8691 12.25Z" stroke="#C3C7CB" style="stroke:#C3C7CB;stroke:color(display-p3 0.7647 0.7804 0.7961);stroke-opacity:1;" stroke-width="0.5"/>
<rect x="20.0291" y="19.0259" width="20.0739" height="4.01477" rx="2.00739" fill="#C3C7CB" style="fill:#C3C7CB;fill:color(display-p3 0.7647 0.7804 0.7961);fill-opacity:1;"/>
<rect x="20.0291" y="27.0552" width="74.2733" height="4.01477" rx="2.00739" fill="#E9EDEF" style="fill:#E9EDEF;fill:color(display-p3 0.9137 0.9294 0.9373);fill-opacity:1;"/>
<path d="M21.9761 35.2769L21.9754 77.3069" stroke="#C3C7CB" style="stroke:#C3C7CB;stroke:color(display-p3 0.7647 0.7804 0.7961);stroke-opacity:1;" stroke-width="0.5" stroke-linecap="round"/>
<rect x="25.4241" y="38.4854" width="5.47013" height="35.5559" rx="0.683766" fill="#C3C7CB" style="fill:#C3C7CB;fill:color(display-p3 0.7647 0.7804 0.7961);fill-opacity:1;"/>
<rect x="32.2618" y="41.5625" width="5.47013" height="32.4789" rx="0.683766" fill="#C3C7CB" style="fill:#C3C7CB;fill:color(display-p3 0.7647 0.7804 0.7961);fill-opacity:1;"/>
<rect x="39.0995" y="44.6392" width="5.47013" height="29.402" rx="0.683766" fill="#C3C7CB" style="fill:#C3C7CB;fill:color(display-p3 0.7647 0.7804 0.7961);fill-opacity:1;"/>
<rect x="45.9371" y="41.5625" width="5.47013" height="32.4789" rx="0.683766" fill="#C3C7CB" style="fill:#C3C7CB;fill:color(display-p3 0.7647 0.7804 0.7961);fill-opacity:1;"/>
<rect x="52.7748" y="49.4258" width="5.47013" height="24.6156" rx="0.683766" fill="#C3C7CB" style="fill:#C3C7CB;fill:color(display-p3 0.7647 0.7804 0.7961);fill-opacity:1;"/>
<rect x="59.6125" y="53.1865" width="5.47013" height="20.8549" rx="0.683766" fill="#C3C7CB" style="fill:#C3C7CB;fill:color(display-p3 0.7647 0.7804 0.7961);fill-opacity:1;"/>
<rect x="66.4501" y="47.7163" width="5.47013" height="26.325" rx="0.683766" fill="#C3C7CB" style="fill:#C3C7CB;fill:color(display-p3 0.7647 0.7804 0.7961);fill-opacity:1;"/>
<path d="M27.2 0.5H40.8C45.5687 0.5 49.1152 0.500389 51.9249 0.729951C54.7287 0.959035 56.7548 1.41385 58.4908 2.29839C61.5955 3.8803 64.1197 6.40448 65.7016 9.50916C66.5862 11.2452 67.041 13.2713 67.2701 16.0751C67.4996 18.8849 67.5 22.4313 67.5 27.2V40.8C67.5 45.5687 67.4996 49.1152 67.2701 51.9249C67.041 54.7287 66.5862 56.7548 65.7016 58.4908C64.1197 61.5955 61.5955 64.1197 58.4908 65.7016C56.7548 66.5862 54.7287 67.041 51.9249 67.2701C49.1151 67.4996 45.5687 67.5 40.8 67.5H27.2C22.4313 67.5 18.8849 67.4996 16.0751 67.2701C13.2713 67.041 11.2452 66.5862 9.50916 65.7016C6.40448 64.1197 3.8803 61.5955 2.29839 58.4908C1.41385 56.7548 0.959035 54.7287 0.729951 51.9249C0.500389 49.1151 0.5 45.5687 0.5 40.8V27.2C0.5 22.4313 0.500389 18.8849 0.729951 16.0751C0.959035 13.2713 1.41385 11.2452 2.29839 9.50916C3.8803 6.40448 6.40448 3.8803 9.50916 2.29839C11.2452 1.41385 13.2713 0.959035 16.0751 0.729951C18.8849 0.500389 22.4313 0.5 27.2 0.5Z" stroke="#E9EDEF" style="stroke:#E9EDEF;stroke:color(display-p3 0.9137 0.9294 0.9373);stroke-opacity:1;"/>
</g>
<defs>
<clipPath id="clip0_153_371">
<rect width="68" height="68" rx="17" fill="white" style="fill:white;fill-opacity:1;"/>
</clipPath>
</defs>
</svg>
