<svg width="68" height="68" viewBox="0 0 68 68" fill="none" xmlns="http://www.w3.org/2000/svg">
<g clip-path="url(#clip0_147_498)">
<path d="M27.2 0.5H40.8C45.5687 0.5 49.1152 0.500389 51.9249 0.729951C54.7287 0.959035 56.7548 1.41385 58.4908 2.29839C61.5955 3.8803 64.1197 6.40448 65.7016 9.50916C66.5862 11.2452 67.041 13.2713 67.2701 16.0751C67.4996 18.8849 67.5 22.4313 67.5 27.2V40.8C67.5 45.5687 67.4996 49.1152 67.2701 51.9249C67.041 54.7287 66.5862 56.7548 65.7016 58.4908C64.1197 61.5955 61.5955 64.1197 58.4908 65.7016C56.7548 66.5862 54.7287 67.041 51.9249 67.2701C49.1151 67.4996 45.5687 67.5 40.8 67.5H27.2C22.4313 67.5 18.8849 67.4996 16.0751 67.2701C13.2713 67.041 11.2452 66.5862 9.50916 65.7016C6.40448 64.1197 3.8803 61.5955 2.29839 58.4908C1.41385 56.7548 0.959035 54.7287 0.729951 51.9249C0.500389 49.1151 0.5 45.5687 0.5 40.8V27.2C0.5 22.4313 0.500389 18.8849 0.729951 16.0751C0.959035 13.2713 1.41385 11.2452 2.29839 9.50916C3.8803 6.40448 6.40448 3.8803 9.50916 2.29839C11.2452 1.41385 13.2713 0.959035 16.0751 0.729951C18.8849 0.500389 22.4313 0.5 27.2 0.5Z" stroke="#E9EDEF" style="stroke:#E9EDEF;stroke:color(display-p3 0.9137 0.9294 0.9373);stroke-opacity:1;"/>
</g>
<defs>
<clipPath id="clip0_147_498">
<rect width="68" height="68" rx="17" fill="white" style="fill:white;fill-opacity:1;"/>
</clipPath>
</defs>
</svg>
