<svg width="68" height="68" viewBox="0 0 68 68" fill="none" xmlns="http://www.w3.org/2000/svg">
<g clip-path="url(#clip0_147_373)">
<path d="M27.2 0.5H40.8C45.5687 0.5 49.1152 0.500389 51.9249 0.729951C54.7287 0.959035 56.7548 1.41385 58.4908 2.29839C61.5955 3.8803 64.1197 6.40448 65.7016 9.50916C66.5862 11.2452 67.041 13.2713 67.2701 16.0751C67.4996 18.8849 67.5 22.4313 67.5 27.2V40.8C67.5 45.5687 67.4996 49.1152 67.2701 51.9249C67.041 54.7287 66.5862 56.7548 65.7016 58.4908C64.1197 61.5955 61.5955 64.1197 58.4908 65.7016C56.7548 66.5862 54.7287 67.041 51.9249 67.2701C49.1151 67.4996 45.5687 67.5 40.8 67.5H27.2C22.4313 67.5 18.8849 67.4996 16.0751 67.2701C13.2713 67.041 11.2452 66.5862 9.50916 65.7016C6.40448 64.1197 3.8803 61.5955 2.29839 58.4908C1.41385 56.7548 0.959035 54.7287 0.729951 51.9249C0.500389 49.1151 0.5 45.5687 0.5 40.8V27.2C0.5 22.4313 0.500389 18.8849 0.729951 16.0751C0.959035 13.2713 1.41385 11.2452 2.29839 9.50916C3.8803 6.40448 6.40448 3.8803 9.50916 2.29839C11.2452 1.41385 13.2713 0.959035 16.0751 0.729951C18.8849 0.500389 22.4313 0.5 27.2 0.5Z" stroke="#E9EDEF" style="stroke:#E9EDEF;stroke:color(display-p3 0.9137 0.9294 0.9373);stroke-opacity:1;"/>
<circle cx="16.3886" cy="40.4824" r="4.89649" fill="#C3C7CB" style="fill:#C3C7CB;fill:color(display-p3 0.7647 0.7804 0.7961);fill-opacity:1;"/>
<circle cx="50.8971" cy="40.4824" r="4.89649" fill="#C3C7CB" style="fill:#C3C7CB;fill:color(display-p3 0.7647 0.7804 0.7961);fill-opacity:1;"/>
<circle cx="25.0157" cy="30.6895" r="4.89649" fill="#C3C7CB" style="fill:#C3C7CB;fill:color(display-p3 0.7647 0.7804 0.7961);fill-opacity:1;"/>
<path fill-rule="evenodd" clip-rule="evenodd" d="M38.5394 20.8965C38.5394 21.0168 38.5351 21.1361 38.5265 21.2542C38.3487 24.2768 39.5385 25.61 42.5792 25.8024L42.5789 25.8027C45.1393 25.9621 47.1665 28.0891 47.1665 30.6896C47.1665 33.3089 45.11 35.4478 42.5236 35.5797C39.5229 35.7849 38.349 37.121 38.5267 40.1274C38.5351 40.2446 38.5394 40.3629 38.5394 40.4823C38.5394 43.1865 36.3471 45.3787 33.6429 45.3787C30.9386 45.3787 28.7464 43.1865 28.7464 40.4823C28.7464 37.8708 30.7907 35.7368 33.3663 35.5934C36.3972 35.3925 37.3829 34.0596 37.3832 31C37.3768 30.8974 37.3736 30.7939 37.3736 30.6896C37.3736 30.5854 37.3768 30.4819 37.3832 30.3792C37.3831 27.4422 36.4022 25.9936 33.3879 25.7865C30.8022 25.6538 28.7464 23.5152 28.7464 20.8965C28.7464 18.1922 30.9387 16 33.6429 16C36.3472 16 38.5394 18.1922 38.5394 20.8965Z" fill="#697680" style="fill:#697680;fill:color(display-p3 0.4118 0.4627 0.5020);fill-opacity:1;"/>
</g>
<defs>
<clipPath id="clip0_147_373">
<rect width="68" height="68" rx="17" fill="white" style="fill:white;fill-opacity:1;"/>
</clipPath>
</defs>
</svg>
