<svg width="68" height="68" viewBox="0 0 68 68" fill="none" xmlns="http://www.w3.org/2000/svg">
<g clip-path="url(#clip0_153_461)">
<path d="M27.2 0.5H40.8C45.5687 0.5 49.1152 0.500389 51.9249 0.729951C54.7287 0.959035 56.7548 1.41385 58.4908 2.29839C61.5955 3.8803 64.1197 6.40448 65.7016 9.50916C66.5862 11.2452 67.041 13.2713 67.2701 16.0751C67.4996 18.8849 67.5 22.4313 67.5 27.2V40.8C67.5 45.5687 67.4996 49.1152 67.2701 51.9249C67.041 54.7287 66.5862 56.7548 65.7016 58.4908C64.1197 61.5955 61.5955 64.1197 58.4908 65.7016C56.7548 66.5862 54.7287 67.041 51.9249 67.2701C49.1151 67.4996 45.5687 67.5 40.8 67.5H27.2C22.4313 67.5 18.8849 67.4996 16.0751 67.2701C13.2713 67.041 11.2452 66.5862 9.50916 65.7016C6.40448 64.1197 3.8803 61.5955 2.29839 58.4908C1.41385 56.7548 0.959035 54.7287 0.729951 51.9249C0.500389 49.1151 0.5 45.5687 0.5 40.8V27.2C0.5 22.4313 0.500389 18.8849 0.729951 16.0751C0.959035 13.2713 1.41385 11.2452 2.29839 9.50916C3.8803 6.40448 6.40448 3.8803 9.50916 2.29839C11.2452 1.41385 13.2713 0.959035 16.0751 0.729951C18.8849 0.500389 22.4313 0.5 27.2 0.5Z" stroke="#E9EDEF" style="stroke:#E9EDEF;stroke:color(display-p3 0.9137 0.9294 0.9373);stroke-opacity:1;"/>
<g clip-path="url(#clip1_153_461)">
<path d="M53.9012 11.3669L37.9377 15.9444C37.5359 16.0593 37.1714 16.2779 36.8809 16.5783C36.5902 16.8786 36.3838 17.2501 36.2822 17.6555L35.0515 22.5744C34.9499 22.9797 34.7434 23.3512 34.4529 23.6516C34.1623 23.9519 33.7978 24.1705 33.396 24.2854L18.0955 28.6565C17.6932 28.7717 17.3284 28.9909 17.0377 29.292C16.7471 29.5931 16.5409 29.9654 16.44 30.3715L14.3636 38.6252C14.3469 38.6929 14.3483 38.7638 14.3677 38.8308C14.3871 38.8978 14.4238 38.9585 14.4741 39.0068C14.5244 39.0551 14.5865 39.0893 14.6543 39.1059C14.722 39.1226 14.7929 39.1211 14.8599 39.1016L30.8194 34.5401C31.2212 34.4251 31.5857 34.2065 31.8763 33.9062C32.1669 33.6058 32.3734 33.2343 32.4749 32.829L33.7057 27.9101C33.8072 27.5047 34.0137 27.1332 34.3043 26.8329C34.5949 26.5325 34.9594 26.3139 35.3612 26.199L50.6616 21.832C51.0681 21.7171 51.4366 21.4964 51.7295 21.1922C52.0225 20.888 52.2294 20.5114 52.329 20.101L54.3934 11.8473C54.4105 11.7797 54.4097 11.7088 54.3911 11.6417C54.372 11.5746 54.3359 11.5136 54.2858 11.4649C54.2362 11.4162 54.1743 11.3815 54.1068 11.3643C54.0393 11.3471 53.9682 11.348 53.9012 11.3669Z" stroke="#C3C7CB" style="stroke:#C3C7CB;stroke:color(display-p3 0.7647 0.7804 0.7961);stroke-opacity:1;" stroke-width="1.19101"/>
<path d="M53.9012 27.9537L37.9377 32.5152C37.5359 32.6302 37.1714 32.8488 36.8809 33.1491C36.5902 33.4495 36.3838 33.8209 36.2822 34.2263L35.0515 39.1571C34.9499 39.5625 34.7434 39.934 34.4529 40.2343C34.1623 40.5347 33.7978 40.7533 33.396 40.8682L18.0955 45.2274C17.6932 45.3426 17.3284 45.5617 17.0377 45.8627C16.7471 46.164 16.5409 46.5364 16.44 46.9425L14.3636 55.1958C14.3469 55.2637 14.3483 55.3344 14.3677 55.4015C14.3871 55.4686 14.4238 55.5293 14.4741 55.5773C14.5244 55.6258 14.5865 55.6599 14.6543 55.6766C14.722 55.6933 14.7929 55.6917 14.8599 55.6722L30.8194 51.1106C31.2212 50.9959 31.5857 50.7772 31.8763 50.477C32.1669 50.1765 32.3734 49.8053 32.4749 49.4L33.7057 44.4809C33.8072 44.0755 34.0137 43.7041 34.3043 43.4037C34.5949 43.1034 34.9594 42.8848 35.3612 42.7698L50.6616 38.4028C51.0638 38.2875 51.4286 38.0683 51.7192 37.7672C52.0098 37.4661 52.2163 37.0938 52.3171 36.6877L54.3934 28.438C54.4117 28.3702 54.4113 28.2988 54.393 28.231C54.3744 28.1633 54.3383 28.1017 54.2882 28.0525C54.2382 28.0032 54.1763 27.9681 54.108 27.9508C54.0401 27.9334 53.9686 27.9344 53.9012 27.9537Z" stroke="#C3C7CB" style="stroke:#C3C7CB;stroke:color(display-p3 0.7647 0.7804 0.7961);stroke-opacity:1;" stroke-width="1.19101"/>
<path d="M42.1934 -5.23193L21.7024 77.7722" stroke="#C3C7CB" style="stroke:#C3C7CB;stroke:color(display-p3 0.7647 0.7804 0.7961);stroke-opacity:1;" stroke-width="0.397004"/>
<path d="M25.1222 -5.23193L4.63121 77.7722" stroke="#C3C7CB" style="stroke:#C3C7CB;stroke:color(display-p3 0.7647 0.7804 0.7961);stroke-opacity:1;" stroke-width="0.397004"/>
<path d="M29.0923 -5.23193L8.6013 77.7722" stroke="#C3C7CB" style="stroke:#C3C7CB;stroke:color(display-p3 0.7647 0.7804 0.7961);stroke-opacity:1;" stroke-width="0.397004"/>
<path d="M45.7664 -5.23193L25.2754 77.7722" stroke="#C3C7CB" style="stroke:#C3C7CB;stroke:color(display-p3 0.7647 0.7804 0.7961);stroke-opacity:1;" stroke-width="0.397004"/>
<path d="M64.2643 25L-18 48.2841" stroke="#C3C7CB" style="stroke:#C3C7CB;stroke:color(display-p3 0.7647 0.7804 0.7961);stroke-opacity:1;" stroke-width="0.397004"/>
<path d="M65.2643 32L-17 55.2841" stroke="#C3C7CB" style="stroke:#C3C7CB;stroke:color(display-p3 0.7647 0.7804 0.7961);stroke-opacity:1;" stroke-width="0.397004"/>
<path d="M65.2643 34L-17 57.2841" stroke="#C3C7CB" style="stroke:#C3C7CB;stroke:color(display-p3 0.7647 0.7804 0.7961);stroke-opacity:1;" stroke-width="0.397004"/>
<path d="M66.2643 41L-16 64.2841" stroke="#C3C7CB" style="stroke:#C3C7CB;stroke:color(display-p3 0.7647 0.7804 0.7961);stroke-opacity:1;" stroke-width="0.397004"/>
<path d="M66.2643 15L-16 38.2841" stroke="#C3C7CB" style="stroke:#C3C7CB;stroke:color(display-p3 0.7647 0.7804 0.7961);stroke-opacity:1;" stroke-width="0.397004"/>
<path d="M66.2643 8L-16 31.2841" stroke="#C3C7CB" style="stroke:#C3C7CB;stroke:color(display-p3 0.7647 0.7804 0.7961);stroke-opacity:1;" stroke-width="0.397004"/>
<path d="M62.8375 -5.23193L42.3465 77.7722" stroke="#C3C7CB" style="stroke:#C3C7CB;stroke:color(display-p3 0.7647 0.7804 0.7961);stroke-opacity:1;" stroke-width="0.397004"/>
<path d="M58.4705 -5.23193L37.9795 77.7722" stroke="#C3C7CB" style="stroke:#C3C7CB;stroke:color(display-p3 0.7647 0.7804 0.7961);stroke-opacity:1;" stroke-width="0.397004"/>
</g>
</g>
<defs>
<clipPath id="clip0_153_461">
<rect width="68" height="68" rx="17" fill="white" style="fill:white;fill-opacity:1;"/>
</clipPath>
<clipPath id="clip1_153_461">
<rect width="53" height="57" fill="white" style="fill:white;fill-opacity:1;" transform="translate(8 5)"/>
</clipPath>
</defs>
</svg>
