<svg width="68" height="68" viewBox="0 0 68 68" fill="none" xmlns="http://www.w3.org/2000/svg">
<rect x="0.5" y="0.5" width="67" height="67" rx="16.5" stroke="#E9EDEF" style="stroke:#E9EDEF;stroke:color(display-p3 0.9137 0.9294 0.9373);stroke-opacity:1;"/>
<path d="M47.659 30.0104L36.8985 33.1337C36.6276 33.2123 36.3819 33.362 36.1861 33.5677C35.9902 33.7733 35.8511 34.0277 35.7825 34.3052L34.9529 37.6813C34.8845 37.9588 34.7453 38.2131 34.5495 38.4188C34.3535 38.6245 34.1078 38.7741 33.837 38.8528L23.5233 41.8375C23.2522 41.9164 23.0063 42.0665 22.8104 42.2727C22.6145 42.4788 22.4755 42.7337 22.4074 43.0118L21.0078 48.663C20.9965 48.7093 20.9975 48.7579 21.0105 48.8038C21.0236 48.8496 21.0484 48.8911 21.0823 48.9242C21.1162 48.9573 21.1581 48.9808 21.2037 48.9921C21.2494 49.0035 21.2972 49.0026 21.3423 48.9892L32.1003 45.8658C32.3711 45.7872 32.6167 45.6376 32.8127 45.4319C33.0085 45.2262 33.1477 44.9719 33.2162 44.6943L34.0458 41.3264C34.1142 41.0489 34.2534 40.7945 34.4492 40.5889C34.6452 40.3832 34.8909 40.2335 35.1616 40.1549L45.4754 37.1648C45.7466 37.0859 45.9925 36.9358 46.1883 36.7296C46.3843 36.5235 46.5232 36.2686 46.5914 35.9905L47.9909 30.342C48.0032 30.2956 48.003 30.2466 47.9905 30.2003C47.9782 30.1539 47.9539 30.1117 47.92 30.0781C47.8864 30.0443 47.8444 30.0203 47.7986 30.0084C47.7527 29.9966 47.7045 29.9972 47.659 30.0104Z" fill="#C3C7CB" style="fill:#C3C7CB;fill:color(display-p3 0.7647 0.7804 0.7961);fill-opacity:1;"/>
<path d="M47.6598 19.0102L36.899 22.1426C36.628 22.2212 36.3824 22.3708 36.1865 22.5763C35.9906 22.7818 35.8515 23.0361 35.7829 23.3135L34.9533 26.6795C34.8849 26.9568 34.7457 27.2111 34.5498 27.4166C34.3539 27.6222 34.1082 27.7717 33.8374 27.8505L23.5234 30.8415C23.2522 30.9204 23.0063 31.0703 22.8104 31.2764C22.6145 31.4824 22.4755 31.7372 22.4074 32.0151L21.0078 37.6631C20.9965 37.7095 20.9975 37.758 21.0106 37.8039C21.0236 37.8497 21.0484 37.8913 21.0823 37.9243C21.1162 37.9573 21.1581 37.9808 21.2037 37.9921C21.2494 38.0035 21.2972 38.0026 21.3423 37.9892L32.1006 34.8677C32.3714 34.789 32.6171 34.6394 32.813 34.4339C33.0089 34.2283 33.1481 33.9741 33.2165 33.6967L34.0461 30.3307C34.1146 30.0533 34.2538 29.7991 34.4496 29.5936C34.6456 29.388 34.8912 29.2384 35.162 29.1599L45.476 26.1714C45.7501 26.0929 45.9985 25.9418 46.1959 25.7337C46.3935 25.5255 46.533 25.2678 46.6001 24.987L47.9917 19.3389C48.0034 19.2927 48.0027 19.2441 47.99 19.1982C47.9773 19.1523 47.953 19.1106 47.9193 19.0772C47.8856 19.0439 47.8439 19.0202 47.7984 19.0084C47.7528 18.9966 47.705 18.9972 47.6598 19.0102Z" fill="#C3C7CB" style="fill:#C3C7CB;fill:color(display-p3 0.7647 0.7804 0.7961);fill-opacity:1;"/>
</svg>
