<svg width="68" height="68" viewBox="0 0 68 68" fill="none" xmlns="http://www.w3.org/2000/svg">
<g clip-path="url(#clip0_147_455)">
<path d="M27.2 0.5H40.8C45.5687 0.5 49.1152 0.500389 51.9249 0.729951C54.7287 0.959035 56.7548 1.41385 58.4908 2.29839C61.5955 3.8803 64.1197 6.40448 65.7016 9.50916C66.5862 11.2452 67.041 13.2713 67.2701 16.0751C67.4996 18.8849 67.5 22.4313 67.5 27.2V40.8C67.5 45.5687 67.4996 49.1152 67.2701 51.9249C67.041 54.7287 66.5862 56.7548 65.7016 58.4908C64.1197 61.5955 61.5955 64.1197 58.4908 65.7016C56.7548 66.5862 54.7287 67.041 51.9249 67.2701C49.1151 67.4996 45.5687 67.5 40.8 67.5H27.2C22.4313 67.5 18.8849 67.4996 16.0751 67.2701C13.2713 67.041 11.2452 66.5862 9.50916 65.7016C6.40448 64.1197 3.8803 61.5955 2.29839 58.4908C1.41385 56.7548 0.959035 54.7287 0.729951 51.9249C0.500389 49.1151 0.5 45.5687 0.5 40.8V27.2C0.5 22.4313 0.500389 18.8849 0.729951 16.0751C0.959035 13.2713 1.41385 11.2452 2.29839 9.50916C3.8803 6.40448 6.40448 3.8803 9.50916 2.29839C11.2452 1.41385 13.2713 0.959035 16.0751 0.729951C18.8849 0.500389 22.4313 0.5 27.2 0.5Z" stroke="#E9EDEF" style="stroke:#E9EDEF;stroke:color(display-p3 0.9137 0.9294 0.9373);stroke-opacity:1;"/>
<g style="mix-blend-mode:color-dodge" opacity="0.32" filter="url(#filter0_f_147_455)">
<path d="M49.2675 39.7976C49.2675 40.2381 48.9104 40.5952 48.4699 40.5952L47.7976 40.5952C47.3571 40.5952 47 40.2381 47 39.7976V39.7976C47 39.3571 47.3571 39 47.7976 39L48.4698 39C48.9104 39 49.2675 39.3571 49.2675 39.7976V39.7976Z" fill="url(#paint0_linear_147_455)" style=""/>
</g>
<path d="M20.6392 51C16.6701 51 14.6289 49.1546 14.6289 45.6086V38.7697C14.6289 37.0662 13.8036 36.0538 12.1532 35.7531C11.5241 35.6384 11 35.1395 11 34.5V34.5C11 33.8605 11.5241 33.3616 12.1532 33.2469C13.8036 32.9462 14.6289 31.9338 14.6289 30.2303V23.3914C14.6289 19.8454 16.6701 18 20.6392 18H20.8421C21.4816 18 22 18.5184 22 19.1579V19.9378C22 20.1465 21.8308 20.3158 21.622 20.3158V20.3158C19.0515 20.3158 17.6907 21.4737 17.6907 23.7171V30.6645C17.6907 32.5085 16.6741 33.9008 14.9611 34.3643C14.8996 34.381 14.8557 34.4363 14.8557 34.5V34.5C14.8557 34.5637 14.8996 34.619 14.9611 34.6357C16.6741 35.0992 17.6907 36.4915 17.6907 38.3355V45.2829C17.6907 47.5263 19.0515 48.6842 21.622 48.6842V48.6842C21.8308 48.6842 22 48.8534 22 49.0622V49.8421C22 50.4816 21.4816 51 20.8421 51H20.6392Z" fill="black" style="fill:black;fill-opacity:1;"/>
<path d="M20.6392 51C16.6701 51 14.6289 49.1546 14.6289 45.6086V38.7697C14.6289 37.0662 13.8036 36.0538 12.1532 35.7531C11.5241 35.6384 11 35.1395 11 34.5V34.5C11 33.8605 11.5241 33.3616 12.1532 33.2469C13.8036 32.9462 14.6289 31.9338 14.6289 30.2303V23.3914C14.6289 19.8454 16.6701 18 20.6392 18H20.8421C21.4816 18 22 18.5184 22 19.1579V19.9378C22 20.1465 21.8308 20.3158 21.622 20.3158V20.3158C19.0515 20.3158 17.6907 21.4737 17.6907 23.7171V30.6645C17.6907 32.5085 16.6741 33.9008 14.9611 34.3643C14.8996 34.381 14.8557 34.4363 14.8557 34.5V34.5C14.8557 34.5637 14.8996 34.619 14.9611 34.6357C16.6741 35.0992 17.6907 36.4915 17.6907 38.3355V45.2829C17.6907 47.5263 19.0515 48.6842 21.622 48.6842V48.6842C21.8308 48.6842 22 48.8534 22 49.0622V49.8421C22 50.4816 21.4816 51 20.8421 51H20.6392Z" fill="#697680" style="fill:#697680;fill:color(display-p3 0.4118 0.4627 0.5020);fill-opacity:1;"/>
<g clip-path="url(#clip1_147_455)">
<path d="M33.5195 41.9855C33.5195 41.4735 33.514 40.9596 33.5231 40.4476C33.5267 40.266 33.4834 40.1852 33.2887 40.1412C32.9787 40.0714 32.6867 39.9283 32.3821 39.8347C32.2613 39.798 32.1244 39.8219 31.9964 39.7998C31.8972 39.7833 31.8035 39.7319 31.7062 39.7062C31.6611 39.6952 31.6071 39.6971 31.5602 39.7099C31.4683 39.7338 31.3673 39.8145 31.2898 39.7925C30.8825 39.6787 30.805 40.02 30.6518 40.2513C30.5779 40.3651 30.5364 40.5009 30.4679 40.6201C30.2967 40.9119 30.1128 41.1945 29.9452 41.49C29.8064 41.7359 29.6965 41.9965 29.5523 42.2387C29.5126 42.3048 29.3972 42.358 29.3197 42.3562C29.2296 42.3525 29.0656 42.2754 29.0674 42.2369C29.0782 42.0167 29.1161 41.7964 29.1701 41.5817C29.2188 41.3872 29.3107 41.2055 29.3648 41.011C29.4405 40.7431 29.4928 40.4678 29.5649 40.1981C29.5847 40.1191 29.6406 40.0512 29.6748 39.976C29.7523 39.8017 29.8244 39.6218 29.9055 39.4475C29.9885 39.2677 30.0822 39.0951 30.1669 38.9171C30.2696 38.7006 30.3652 38.4804 30.4661 38.262C30.522 38.1446 30.5616 38.0088 30.6445 37.9152C30.8843 37.6454 30.7347 37.1719 31.1492 36.9829C31.2556 36.9352 31.2934 36.726 31.3547 36.5865C31.4863 36.2819 31.5872 35.9608 31.7494 35.6745C31.9171 35.3809 32.1406 35.1184 32.3425 34.8468C32.5425 34.5789 32.7804 34.333 32.9445 34.0431C33.1409 33.6962 33.4293 33.6815 33.7339 33.7494C33.9827 33.8045 34.0512 34.0174 34.0728 34.2743C34.1016 34.623 34.0872 35.0414 34.2711 35.2964C34.5685 35.7149 34.3396 36.1461 34.4603 36.5425C34.7163 37.3867 34.5883 38.2528 34.6298 39.108C34.6316 39.152 34.691 39.1924 34.6928 39.2346C34.7055 39.42 34.7127 39.6071 34.7073 39.7925C34.7037 39.8971 34.6262 40.0274 34.664 40.1026C34.8659 40.5045 34.8352 40.8936 34.6658 41.2918C34.6352 41.3615 34.6316 41.4478 34.6298 41.5248C34.6226 42.0736 34.6424 42.6259 34.6081 43.1728C34.5811 43.5967 34.5469 44.039 34.4009 44.428C34.3432 44.5822 34.3125 44.9914 33.943 44.9051C33.8511 44.8831 33.7412 44.7693 33.7159 44.6776C33.6763 44.5271 33.7105 44.3564 33.6943 44.1968C33.6168 43.4609 33.5339 42.725 33.4528 41.9891C33.4744 41.9873 33.4978 41.9836 33.5195 41.9818V41.9855Z" fill="#C3C7CB" style="fill:#C3C7CB;fill:color(display-p3 0.7647 0.7804 0.7961);fill-opacity:1;"/>
<path d="M32.9841 23.9497C32.9841 24.5718 32.9607 25.1957 32.9913 25.8178C33.0201 26.4105 33.076 27.0051 33.1752 27.5887C33.2274 27.897 33.4023 28.1814 33.5086 28.4806C33.5861 28.7026 33.6186 28.9467 33.7141 29.1596C33.8781 29.5229 34.0187 29.9248 34.2837 30.1982C34.4207 30.3395 34.8082 30.2808 35.0677 30.2294C35.2588 30.1909 35.4553 30.0478 35.5904 29.8954C35.722 29.7468 35.8176 29.5394 35.859 29.3412C35.9491 28.9045 35.9131 28.4237 36.0807 28.0273C36.2483 27.6272 36.1564 27.2437 36.2123 26.8583C36.2628 26.5078 36.3331 26.161 36.3727 25.8105C36.3835 25.7114 36.3132 25.6013 36.2772 25.4985C36.27 25.4783 36.2447 25.46 36.2465 25.4434C36.324 24.9241 36.1636 24.4139 36.2015 23.8909C36.2411 23.3441 36.1961 22.7917 36.2105 22.243C36.2105 22.1714 36.3475 22.0393 36.407 22.0466C36.5367 22.065 36.7116 22.12 36.7692 22.221C36.9062 22.4559 37.0108 22.7164 37.0811 22.9807C37.1351 23.1881 37.0811 23.4248 37.1369 23.6322C37.3586 24.4415 37.1784 25.293 37.3424 26.0821C37.4902 26.7831 37.4578 27.4639 37.4452 28.1502C37.4362 28.5723 37.2577 28.9889 37.155 29.4091C37.1424 29.4587 37.1351 29.5101 37.1315 29.5596C37.0937 30.0514 36.9819 30.512 36.6467 30.8938C36.4953 31.0663 36.3727 31.2681 36.2105 31.4296C36.1077 31.5324 35.9617 31.6498 35.832 31.6535C35.2984 31.67 34.7631 31.648 34.2278 31.6315C34.1647 31.6296 34.107 31.5581 34.0421 31.5507C33.6222 31.4993 33.2725 31.2773 33.0274 30.9617C32.8291 30.7047 32.7804 30.334 32.6056 30.0533C32.3857 29.7009 32.483 29.3266 32.4325 28.9632C32.3983 28.7081 32.3695 28.431 32.2559 28.209C31.8486 27.4217 32.1297 26.5904 32.0685 25.7829C32.0216 25.1865 32.0522 24.5809 32.0757 23.9808C32.0829 23.7992 32.2018 23.6248 32.2361 23.4413C32.2721 23.2505 32.2523 23.0486 32.2793 22.8541C32.3334 22.4834 32.3875 22.1109 32.4758 21.7475C32.4992 21.6484 32.6452 21.5787 32.7336 21.4961C32.8129 21.6172 32.9571 21.7347 32.9607 21.8576C32.9823 22.5531 32.9715 23.2486 32.9715 23.946C32.9751 23.946 32.9787 23.946 32.9823 23.946L32.9841 23.9497Z" fill="#C3C7CB" style="fill:#C3C7CB;fill:color(display-p3 0.7647 0.7804 0.7961);fill-opacity:1;"/>
<path d="M27.31 26.2269C26.6773 26.2269 26.0429 26.2361 25.4102 26.2195C25.2931 26.2159 25.1777 26.1149 25.0606 26.0599C25.1705 25.9406 25.2606 25.7626 25.394 25.7149C26.0645 25.4745 26.7783 25.5883 27.465 25.4928C28.6204 25.3313 29.774 25.3295 30.9329 25.3313C31.2808 25.3313 31.4989 25.68 31.3511 25.9498C31.1853 26.2544 30.9456 26.5168 30.7329 26.7939C30.522 27.0692 30.2047 27.2362 30.084 27.6161C30.0173 27.8289 29.7325 27.9611 29.5703 28.1519C29.39 28.3611 29.2494 28.6034 29.071 28.8126C28.8565 29.0621 28.6078 29.2824 28.3915 29.5338C28.0508 29.9302 27.7282 30.3449 27.3929 30.7468C27.2595 30.9064 27.1027 31.0478 26.973 31.2111C26.9225 31.2753 26.9045 31.3762 26.9009 31.4607C26.9009 31.4827 27.018 31.5341 27.0775 31.5267C27.5119 31.4753 27.9841 31.501 28.3662 31.3267C28.7754 31.1395 29.1629 31.2294 29.5577 31.1909C30.2913 31.1193 31.0267 31.0514 31.7621 31.0202C31.9207 31.0129 32.0937 31.1524 32.2451 31.2496C32.2848 31.2753 32.2974 31.4368 32.2613 31.4698C32.155 31.5708 32.027 31.6607 31.8936 31.7157C31.58 31.8479 31.2556 31.958 30.9365 32.0773C30.9239 32.0828 30.9113 32.0919 30.8969 32.0956C30.5779 32.1598 30.2606 32.2369 29.938 32.2865C29.4315 32.3635 28.8872 32.3323 28.4221 32.5122C28.0418 32.659 27.6849 32.6039 27.319 32.648C26.7314 32.7177 26.1438 32.7746 25.5562 32.837C25.549 32.837 25.54 32.837 25.5346 32.8407C25.1399 33.2242 25.0858 32.6792 24.9001 32.5672C24.6586 32.4204 24.6478 32.1653 24.8533 31.8882C25.1363 31.5084 25.3255 31.0551 25.6067 30.6734C25.9365 30.2219 26.3115 29.8035 26.6864 29.3888C27.0216 29.0181 27.3911 28.6768 27.7318 28.3098C28.1049 27.906 28.4582 27.4821 28.8295 27.0747C29.0259 26.8582 29.244 26.6636 29.4495 26.4544C29.4928 26.4104 29.5162 26.3462 29.5487 26.2911C29.4856 26.2673 29.4225 26.2251 29.3594 26.2251C28.6763 26.2195 27.9913 26.2214 27.3082 26.2214C27.3082 26.2232 27.3082 26.2251 27.3082 26.2287L27.31 26.2269Z" fill="#C3C7CB" style="fill:#C3C7CB;fill:color(display-p3 0.7647 0.7804 0.7961);fill-opacity:1;"/>
<path d="M26.9008 37.783C26.9008 38.2657 26.8306 38.763 26.9135 39.2309C27.2235 40.9633 26.9802 42.7048 27.0631 44.439C27.0667 44.5289 27.0378 44.6556 26.9766 44.7051C26.9207 44.7491 26.7927 44.7326 26.7116 44.7014C26.6395 44.6739 26.5692 44.5987 26.5331 44.5253C26.4484 44.3509 26.3853 44.1674 26.3096 43.9876C26.2339 43.8096 26.1546 43.6352 26.0771 43.4591C26.0447 43.3838 25.9942 43.3104 25.9852 43.2315C25.9149 42.6277 25.9492 41.991 25.7689 41.4239C25.394 40.2439 25.6896 39.0529 25.5742 37.8748C25.5202 37.3279 25.4661 36.781 25.403 36.2342C25.3976 36.1883 25.3111 36.1259 25.257 36.1186C24.7001 36.0525 24.1359 36.0268 23.5861 35.924C23.3518 35.88 23.1121 35.7093 22.9463 35.5258C22.8904 35.4653 23.0202 35.1625 23.1319 35.0267C23.2509 34.8817 23.4185 34.7991 23.651 34.9386C23.7772 35.0138 24.0025 34.9202 24.1828 34.8964C24.2603 34.8872 24.3342 34.8487 24.4099 34.8487C26.0285 34.8413 27.6471 34.834 29.2657 34.834C29.6676 34.834 29.8767 35.0322 29.9236 35.4304C29.9272 35.4598 29.9236 35.4928 29.938 35.5166C29.9812 35.5864 30.0768 35.7075 30.0714 35.7112C29.9055 35.8543 29.7361 35.9956 29.5559 36.1149C29.4423 36.1901 29.3125 36.2562 29.1828 36.2819C29.0746 36.3021 28.9142 36.2966 28.8457 36.2305C28.6997 36.0892 28.6042 36.0764 28.4834 36.2397C28.4528 36.2801 28.3951 36.3241 28.3482 36.3241C28.0238 36.3314 27.7011 36.3278 27.3767 36.3241C27.337 36.3241 27.2974 36.2966 27.2595 36.2782C27.1604 36.2323 27.0631 36.1846 26.9639 36.1388C26.9387 36.2397 26.8936 36.3388 26.8918 36.4397C26.8846 36.8857 26.8882 37.3334 26.8882 37.7794C26.8936 37.7794 26.8972 37.7794 26.9027 37.7794L26.9008 37.783Z" fill="#C3C7CB" style="fill:#C3C7CB;fill:color(display-p3 0.7647 0.7804 0.7961);fill-opacity:1;"/>
<path d="M42.6939 30.9726C42.6939 31.2296 42.7318 31.4938 42.6831 31.7397C42.6326 31.993 42.5461 32.2682 42.3911 32.4664C42.0973 32.8426 41.7656 33.1931 41.4088 33.5088C41.1997 33.6941 40.9167 33.7969 40.6625 33.929C40.4372 34.0465 40.2083 34.1548 39.9776 34.263C39.9326 34.2832 39.8839 34.3016 39.8352 34.3052C39.3612 34.3364 38.8763 34.3584 38.4509 34.1217C38.0616 33.9052 37.6525 33.6703 37.3605 33.3436C37.0486 32.9931 37.0558 32.4921 37.1333 32.0278C37.1406 31.9893 37.3587 31.9287 37.3929 31.9655C37.5641 32.138 37.7047 32.3435 37.8615 32.5325C37.9138 32.5967 37.9679 32.6665 38.0382 32.7032C38.2707 32.8243 38.5086 32.9326 38.7465 33.0408C38.8835 33.1032 39.0277 33.2023 39.1665 33.2005C39.6982 33.1895 40.1579 32.9894 40.5256 32.5802C40.7166 32.3673 40.9563 32.193 41.1258 31.9655C41.2646 31.7783 41.3637 31.5452 41.416 31.3158C41.4646 31.1084 41.4232 30.8791 41.4268 30.6588C41.4322 30.2881 41.2483 30.0019 41.0122 29.7523C40.6373 29.3559 40.2426 28.9779 39.8623 28.5852C39.5072 28.2181 39.3756 27.7704 39.4351 27.2657C39.491 26.7776 39.554 26.2913 39.6333 25.8068C39.646 25.7297 39.7811 25.682 39.819 25.6012C40.0317 25.148 40.3687 24.7975 40.7256 24.4671C40.8302 24.3699 40.996 24.3424 41.1294 24.2726C41.261 24.2047 41.3835 24.1221 41.5151 24.0524C41.5512 24.0341 41.6034 24.0249 41.6413 24.0377C41.8648 24.1111 42.1081 24.1552 42.301 24.28C42.6056 24.4782 42.9156 24.6965 43.1409 24.9755C43.2635 25.1278 43.2202 25.4214 43.2328 25.6508C43.2328 25.66 43.0274 25.7224 42.9444 25.6875C42.793 25.6251 42.6705 25.4856 42.5191 25.4232C42.2036 25.2966 41.9152 25.0214 41.5421 25.1461C41.3745 25.2012 41.2339 25.3333 41.0807 25.4324C41.0447 25.4544 41.014 25.5003 40.978 25.504C40.6409 25.5389 40.6589 25.86 40.531 26.0637C40.3291 26.3848 40.5544 26.6987 40.5652 27.0143C40.5724 27.2143 40.7689 27.4143 40.8969 27.6034C41.0627 27.8456 41.2303 28.0915 41.425 28.3099C41.7458 28.6677 42.0901 29.0054 42.4217 29.3522C42.4542 29.3871 42.4938 29.4293 42.5028 29.4715C42.5948 29.9652 42.6813 30.4607 42.7678 30.9561C42.7426 30.9616 42.7173 30.9653 42.6903 30.9708L42.6939 30.9726Z" fill="#C3C7CB" style="fill:#C3C7CB;fill:color(display-p3 0.7647 0.7804 0.7961);fill-opacity:1;"/>
<path d="M41.0826 37.0029C41.0826 37.3479 41.1709 37.7241 41.0627 38.0288C40.8897 38.5096 40.9528 38.9849 40.9348 39.462C40.9293 39.5849 41.0483 39.7189 41.0321 39.8364C41.0087 40.0034 40.9582 40.2144 40.8428 40.3117C40.4409 40.6493 40.1237 40.5741 39.8118 40.2254C39.4333 39.8015 38.9935 39.4363 38.606 39.0216C38.3879 38.7885 38.2311 38.4967 38.0202 38.2563C37.9084 38.1279 37.7336 38.06 37.5948 37.9535C37.5407 37.9113 37.5083 37.8397 37.465 37.7829C37.4254 37.7315 37.3947 37.6562 37.3443 37.636C37.2974 37.6177 37.2271 37.6562 37.1658 37.6709C37.1929 37.7223 37.2325 37.77 37.2451 37.8251C37.2541 37.8636 37.2379 37.915 37.2217 37.9554C37.2073 37.9921 37.1496 38.0306 37.155 38.0563C37.2632 38.4802 37.0829 38.8931 37.119 39.3207C37.1568 39.7703 37.2181 40.2621 37.0883 40.675C36.9081 41.2476 37.0433 41.8165 36.9333 42.3707C36.8846 42.6111 36.7585 42.8716 36.5872 43.0405C36.3944 43.2332 36.3457 42.9139 36.2268 42.8331C36.2087 42.8203 36.2177 42.7634 36.2159 42.7267C36.097 40.8695 35.9726 39.0124 36.0519 37.1479C36.0609 36.9424 36.0105 36.7258 36.0591 36.535C36.1402 36.2248 36.2394 35.9019 36.407 35.6358C36.5782 35.366 37.1424 35.5275 37.3244 35.8119C37.4885 36.0689 37.7174 36.2872 37.9319 36.5093C38.442 37.0378 38.9593 37.5571 39.4748 38.0801C39.5379 38.1444 39.6009 38.2104 39.6694 38.2692C39.6929 38.2893 39.7578 38.3004 39.765 38.2893C39.7992 38.2398 39.8407 38.1811 39.8407 38.1242C39.8461 37.7076 39.8262 37.2874 39.8515 36.8726C39.8641 36.6524 40.0443 36.4065 39.9831 36.2285C39.8821 35.9275 40.0119 35.6725 40.0065 35.399C40.0011 35.0467 40.1453 34.854 40.403 34.8485C40.7527 34.8393 40.8987 35.01 40.9384 35.3899C40.9942 35.9294 41.0789 36.4652 41.1529 37.0011C41.1312 37.0048 41.1096 37.0066 41.088 37.0103L41.0826 37.0029Z" fill="#C3C7CB" style="fill:#C3C7CB;fill:color(display-p3 0.7647 0.7804 0.7961);fill-opacity:1;"/>
<path d="M42.5155 35.8359C42.5155 35.4983 42.5119 35.1625 42.5155 34.8266C42.5173 34.6413 42.9012 34.2853 43.0292 34.3513C43.2112 34.4486 43.3879 34.5605 43.5591 34.6743C43.7141 34.7771 43.8727 34.8817 44.0115 35.0065C44.2981 35.2652 44.5793 35.5313 44.8496 35.8066C45.0155 35.9754 45.1633 36.1626 45.3129 36.3461C45.3543 36.3975 45.3832 36.4654 45.4066 36.5296C45.4823 36.7462 45.5508 36.9645 45.6229 37.1829C45.6661 37.3132 45.7437 37.4417 45.7491 37.5738C45.7671 38.0197 45.8013 38.473 45.7491 38.9116C45.7022 39.2915 45.5508 39.6603 45.4372 40.031C45.3742 40.2384 45.3255 40.4604 45.2155 40.6403C45.0479 40.9156 44.8496 41.1798 44.6315 41.4165C44.3648 41.7102 44.0764 41.9873 43.7736 42.2423C43.6204 42.3726 43.4185 42.446 43.2346 42.5378C43.0616 42.6222 42.8669 42.6718 42.7101 42.78C42.4271 42.9746 42.1928 42.9434 42.018 42.6479C41.9495 42.5305 41.8341 42.4222 41.8161 42.2992C41.7945 42.1524 41.8504 41.9909 41.8864 41.8386C41.9044 41.7615 41.9729 41.6918 41.9783 41.6166C41.9946 41.3909 41.9783 41.1615 41.9982 40.9357C42.054 40.2421 42.0288 39.5227 42.2108 38.8657C42.3641 38.3189 42.2721 37.7885 42.3514 37.2582C42.4217 36.7865 42.4974 36.3167 42.5713 35.8451C42.5533 35.8414 42.5335 35.8378 42.5155 35.8341V35.8359Z" fill="#C3C7CB" style="fill:#C3C7CB;fill:color(display-p3 0.7647 0.7804 0.7961);fill-opacity:1;"/>
<path d="M31.7531 43.9123C31.6593 44.1362 31.5782 44.3417 31.4863 44.5418C31.3962 44.7418 31.2952 44.9363 31.1961 45.1308C31.1655 45.1896 31.1294 45.2483 31.0862 45.2997C31.0014 45.4006 30.9113 45.4979 30.8212 45.5933C30.7455 45.674 30.6662 45.7511 30.5887 45.8282C30.4895 45.7199 30.3309 45.6208 30.3075 45.4979C30.2841 45.3712 30.376 45.2097 30.4463 45.0813C30.6265 44.7491 30.8086 44.417 31.0159 44.1032C31.1258 43.9362 31.2826 43.7985 31.4322 43.6646C31.4737 43.6279 31.5999 43.6187 31.6323 43.6517C31.6936 43.7159 31.7134 43.8206 31.7513 43.9086L31.7531 43.9123Z" fill="#C3C7CB" style="fill:#C3C7CB;fill:color(display-p3 0.7647 0.7804 0.7961);fill-opacity:1;"/>
<path d="M22.8039 39.1168C22.6507 39.0141 22.5173 38.926 22.3839 38.836C22.3749 38.8305 22.3695 38.8048 22.3749 38.7957C22.4614 38.6434 22.5137 38.4342 22.6435 38.3534C22.921 38.1827 23.2419 38.0873 23.5393 37.9478C23.7051 37.8708 23.8493 37.7295 24.0205 37.6818C24.2188 37.6267 24.4369 37.6395 24.646 37.6304C24.6622 37.6304 24.6983 37.6891 24.6929 37.7111C24.6856 37.7368 24.6424 37.7533 24.6171 37.7753C24.5144 37.8598 24.4153 37.9515 24.3089 38.0304C24.0043 38.2617 23.6961 38.4892 23.3897 38.7168C23.2941 38.7883 23.2022 38.8617 23.1049 38.9296C23.0166 38.9902 22.9246 39.0416 22.8039 39.115V39.1168Z" fill="#C3C7CB" style="fill:#C3C7CB;fill:color(display-p3 0.7647 0.7804 0.7961);fill-opacity:1;"/>
<path d="M43.9394 29.0089C43.8944 28.9832 43.8006 28.9576 43.7898 28.9135C43.7754 28.8493 43.8006 28.7447 43.8475 28.7006C44.08 28.4823 44.4008 28.3226 44.545 28.0602C44.7271 27.7299 45.0912 27.6711 45.2822 27.3793C45.4102 27.183 45.8212 27.1426 45.9383 27.2637C46.0988 27.4307 46.0303 27.6271 45.805 27.717C45.7166 27.7519 45.6517 27.851 45.5724 27.9152C45.4391 28.0235 45.3057 28.1336 45.1669 28.2308C44.8172 28.4767 44.4639 28.719 44.1088 28.9594C44.0692 28.9851 44.0151 28.9869 43.9394 29.0089Z" fill="#C3C7CB" style="fill:#C3C7CB;fill:color(display-p3 0.7647 0.7804 0.7961);fill-opacity:1;"/>
<path d="M45.1434 31.1926C44.9848 31.1926 44.828 31.1982 44.6694 31.189C44.6225 31.1853 44.5775 31.1376 44.5324 31.1119C44.5739 31.0807 44.6153 31.0238 44.655 31.0238C44.9326 31.0238 45.1272 30.8917 45.284 30.6715C45.3075 30.6384 45.376 30.6403 45.421 30.6219C45.6589 30.5228 45.8897 30.3852 46.1384 30.332C46.3979 30.2751 46.6737 30.2953 46.9423 30.2989C46.9621 30.2989 47.0216 30.4898 46.991 30.5192C46.8702 30.6403 46.735 30.7632 46.5818 30.8311C46.2952 30.9578 45.9978 31.0642 45.6968 31.1486C45.5202 31.1982 45.3291 31.189 45.1434 31.2055V31.1945V31.1926Z" fill="#C3C7CB" style="fill:#C3C7CB;fill:color(display-p3 0.7647 0.7804 0.7961);fill-opacity:1;"/>
<path d="M23.9502 33.7217C23.4582 33.6648 22.9643 33.6189 22.474 33.5437C22.3298 33.5216 22.1892 33.4354 22.0649 33.3528C22.018 33.3216 21.9838 33.1803 22.0126 33.1418C22.1009 33.0225 22.2109 32.8647 22.3316 32.8426C22.465 32.8188 22.6218 32.9307 22.7678 32.9858C22.7949 32.995 22.8165 33.0151 22.8435 33.0243C23.1355 33.1381 23.4275 33.2574 23.7231 33.3638C23.9358 33.4409 24.1575 33.4978 24.372 33.5694C24.4135 33.584 24.4477 33.6207 24.4874 33.6464C24.4459 33.6758 24.4045 33.7272 24.3612 33.7308C24.226 33.7419 24.089 33.7345 23.952 33.7345C23.952 33.729 23.952 33.7253 23.952 33.7198L23.9502 33.7217Z" fill="#C3C7CB" style="fill:#C3C7CB;fill:color(display-p3 0.7647 0.7804 0.7961);fill-opacity:1;"/>
<path d="M40.5526 44.4498C40.5292 44.5104 40.4877 44.6113 40.4463 44.7123C40.3399 44.6664 40.2084 44.6462 40.1345 44.5673C40.0245 44.4498 39.929 44.303 39.8731 44.1525C39.7704 43.8773 39.7127 43.5855 39.6154 43.3084C39.5415 43.0955 39.4297 42.8955 39.345 42.6844C39.3144 42.6092 39.2927 42.5174 39.3089 42.444C39.318 42.4073 39.4333 42.3615 39.4838 42.378C39.5415 42.3963 39.5829 42.4752 39.628 42.5303C39.6965 42.6129 39.7776 42.6899 39.8262 42.7854C40.0606 43.2258 40.2895 43.6681 40.5094 44.1158C40.549 44.1947 40.5364 44.3012 40.5544 44.4517L40.5526 44.4498Z" fill="#C3C7CB" style="fill:#C3C7CB;fill:color(display-p3 0.7647 0.7804 0.7961);fill-opacity:1;"/>
<path d="M32.9246 45.6646C32.8778 46.1069 32.8435 46.5528 32.7786 46.9914C32.7552 47.1455 32.6705 47.2942 32.593 47.4336C32.5119 47.575 32.1424 47.4722 32.0973 47.2593C32.0631 47.1033 32.1514 46.9198 32.1929 46.7491C32.2001 46.7198 32.2541 46.7014 32.2613 46.6721C32.3298 46.3638 32.3911 46.0536 32.4596 45.7435C32.4794 45.6554 32.4867 45.5416 32.5443 45.4921C32.6345 45.4113 32.7606 45.3728 32.8724 45.3159C32.9174 45.4279 32.9625 45.5398 33.0076 45.6499C32.9805 45.6536 32.9535 45.6591 32.9264 45.6628L32.9246 45.6646Z" fill="#C3C7CB" style="fill:#C3C7CB;fill:color(display-p3 0.7647 0.7804 0.7961);fill-opacity:1;"/>
<path d="M24.9596 29.5375C24.8803 29.6347 24.8442 29.7228 24.7992 29.7265C24.7145 29.7338 24.5847 29.7247 24.545 29.6696C24.3468 29.3962 24.0566 29.2934 23.7808 29.1356C23.5266 28.9906 23.1301 28.9319 23.067 28.5245C23.0634 28.5043 23.0418 28.4878 23.0382 28.4676C23.0075 28.3447 22.9787 28.2235 22.9481 28.1006C23.1067 28.1226 23.3122 28.0877 23.4149 28.1758C23.8006 28.5043 24.1521 28.8768 24.5198 29.2274C24.5739 29.2787 24.6604 29.2916 24.7235 29.3356C24.7992 29.3888 24.8641 29.4567 24.9578 29.5393L24.9596 29.5375Z" fill="#C3C7CB" style="fill:#C3C7CB;fill:color(display-p3 0.7647 0.7804 0.7961);fill-opacity:1;"/>
<path d="M39.5108 22.2961C39.3828 22.7145 39.2603 23.1347 39.1251 23.5495C39.0782 23.6926 39.0169 23.8468 38.9196 23.955C38.8655 24.0156 38.7213 23.9917 38.6186 24.0046C38.6438 23.944 38.6745 23.8871 38.6943 23.8247C38.7177 23.7513 38.7448 23.6761 38.7502 23.599C38.761 23.4467 38.7628 23.2926 38.7592 23.1384C38.752 22.7182 38.8763 22.3346 39.0962 21.9878C39.1449 21.9107 39.2657 21.8813 39.3522 21.8281C39.3882 21.9125 39.4333 21.997 39.4585 22.085C39.4748 22.1456 39.4621 22.2153 39.4621 22.2814C39.4784 22.2851 39.4946 22.2906 39.5108 22.2942V22.2961Z" fill="#C3C7CB" style="fill:#C3C7CB;fill:color(display-p3 0.7647 0.7804 0.7961);fill-opacity:1;"/>
<path d="M29.4531 21.8979C29.6009 22.076 29.673 22.1604 29.7397 22.2466C29.7722 22.2907 29.7866 22.3531 29.8244 22.3898C29.9975 22.5568 30.1471 22.7146 30.1453 23.0009C30.1453 23.1679 30.3147 23.3275 30.376 23.5037C30.4211 23.634 30.4174 23.7826 30.4355 23.9221C30.3327 23.8707 30.203 23.845 30.1327 23.7661C29.8893 23.4872 29.6478 23.2027 29.4441 22.8944C29.3288 22.7219 29.2639 22.4999 29.2296 22.2925C29.2152 22.2062 29.336 22.0961 29.4531 21.8979Z" fill="#C3C7CB" style="fill:#C3C7CB;fill:color(display-p3 0.7647 0.7804 0.7961);fill-opacity:1;"/>
<path d="M38.1932 44.4427C38.1932 44.4133 38.186 44.3748 38.1932 44.3399C38.2148 44.2408 38.2437 44.1435 38.2707 44.0444C38.3608 44.1362 38.4852 44.2114 38.5321 44.3234C38.6745 44.6684 38.7898 45.0244 38.9106 45.3786C38.9719 45.5547 39.062 45.7327 39.0656 45.9108C39.0674 46.0135 38.9412 46.1567 38.8367 46.2099C38.77 46.2447 38.5861 46.175 38.5483 46.1016C38.4582 45.9291 38.4077 45.7272 38.3698 45.5327C38.2996 45.173 38.2509 44.8097 38.1914 44.4408L38.1932 44.4427Z" fill="#C3C7CB" style="fill:#C3C7CB;fill:color(display-p3 0.7647 0.7804 0.7961);fill-opacity:1;"/>
<path d="M44.3107 32.5933C44.4747 32.7474 44.6532 32.9199 44.837 33.0814C44.9019 33.1383 44.9848 33.175 45.0623 33.2172C45.1056 33.2392 45.1669 33.2374 45.1993 33.2686C45.3417 33.4117 45.4769 33.564 45.6157 33.7109C45.677 33.7769 45.7563 33.8301 45.8049 33.9054C45.8446 33.9641 45.8879 34.0852 45.8626 34.1109C45.7527 34.2247 45.6301 34.4339 45.4463 34.2577C45.0587 33.887 44.6946 33.4925 44.3215 33.1071C44.2206 33.0043 44.1179 32.9016 44.0187 32.797C43.9971 32.7749 43.9917 32.7382 43.9791 32.707C44.0638 32.6777 44.1485 32.6483 44.3107 32.5933Z" fill="#C3C7CB" style="fill:#C3C7CB;fill:color(display-p3 0.7647 0.7804 0.7961);fill-opacity:1;"/>
<path d="M33.368 38.0233C33.368 38.3169 33.3734 38.6087 33.3662 38.9023C33.3626 39.073 33.4275 39.24 33.0959 39.106C32.6831 38.939 32.2073 38.9353 31.7584 38.8564C31.69 38.8454 31.571 38.8142 31.5692 38.7885C31.5656 38.706 31.5908 38.6124 31.6323 38.539C31.7693 38.2949 31.9225 38.06 32.0595 37.8178C32.1658 37.6287 32.2523 37.4305 32.3569 37.2397C32.5047 36.9699 32.6651 36.7075 32.8111 36.4359C32.885 36.3001 32.9372 36.1515 33.0039 36.012C33.013 35.9918 33.0616 35.968 33.0688 35.9735C33.0977 35.9992 33.1355 36.0322 33.1391 36.0671C33.1517 36.1753 33.1445 36.2873 33.1535 36.3955C33.1698 36.579 33.0796 36.7974 33.3212 36.913C33.3536 36.9296 33.3518 37.0342 33.3518 37.0984C33.3554 37.4067 33.3518 37.7132 33.3518 38.0215C33.3572 38.0215 33.3608 38.0215 33.3662 38.0215L33.368 38.0233Z" fill="white" style="fill:white;fill-opacity:1;"/>
<path d="M44.7505 38.3038C44.6244 38.6818 44.491 39.0819 44.354 39.482C44.2873 39.6801 44.2476 39.9004 44.1323 40.0655C43.889 40.4179 43.606 40.7408 43.3338 41.0712C43.2815 41.1336 43.2004 41.1721 43.1337 41.2216C43.1157 41.1189 43.0779 41.0143 43.0851 40.9115C43.1409 39.9829 43.2022 39.0562 43.2671 38.1295C43.2707 38.0707 43.3194 38.0157 43.3392 37.957C43.3663 37.8799 43.4293 37.7588 43.4005 37.7257C43.1554 37.4358 43.2942 37.0963 43.2725 36.7825C43.2509 36.4613 43.2617 36.1384 43.2671 35.8172C43.2671 35.7512 43.2996 35.6833 43.3176 35.6172C43.3644 35.6539 43.4149 35.6851 43.4582 35.7255C43.6799 35.942 43.952 36.1292 44.1071 36.3879C44.2927 36.6962 44.3864 37.0614 44.5036 37.4101C44.5937 37.6799 44.6568 37.9588 44.7523 38.3056L44.7505 38.3038Z" fill="white" style="fill:white;fill-opacity:1;"/>
</g>
<path d="M48.3608 51C52.3299 51 54.3711 49.1546 54.3711 45.6086V38.7697C54.3711 37.0662 55.1964 36.0538 56.8468 35.7531C57.4759 35.6384 58 35.1395 58 34.5V34.5C58 33.8605 57.4759 33.3616 56.8468 33.2469C55.1964 32.9462 54.3711 31.9338 54.3711 30.2303V23.3914C54.3711 19.8454 52.3299 18 48.3608 18H48.1579C47.5184 18 47 18.5184 47 19.1579V19.9378C47 20.1466 47.1692 20.3158 47.378 20.3158V20.3158C49.9485 20.3158 51.3093 21.4737 51.3093 23.7171V30.6645C51.3093 32.5085 52.3259 33.9008 54.0389 34.3643C54.1004 34.381 54.1443 34.4363 54.1443 34.5V34.5C54.1443 34.5637 54.1004 34.619 54.0389 34.6357C52.3259 35.0992 51.3093 36.4915 51.3093 38.3355V45.2829C51.3093 47.5263 49.9485 48.6842 47.378 48.6842V48.6842C47.1692 48.6842 47 48.8534 47 49.0622V49.8421C47 50.4816 47.5184 51 48.1579 51H48.3608Z" fill="#697680" style="fill:#697680;fill:color(display-p3 0.4118 0.4627 0.5020);fill-opacity:1;"/>
</g>
<defs>
<filter id="filter0_f_147_455" x="46.6875" y="38.6875" width="2.89246" height="2.22021" filterUnits="userSpaceOnUse" color-interpolation-filters="sRGB">
<feFlood flood-opacity="0" result="BackgroundImageFix"/>
<feBlend mode="normal" in="SourceGraphic" in2="BackgroundImageFix" result="shape"/>
<feGaussianBlur stdDeviation="0.15625" result="effect1_foregroundBlur_147_455"/>
</filter>
<linearGradient id="paint0_linear_147_455" x1="48.7419" y1="40.8774" x2="48.8762" y2="39.6268" gradientUnits="userSpaceOnUse">
<stop stop-color="#797979" style="stop-color:#797979;stop-color:color(display-p3 0.4750 0.4750 0.4750);stop-opacity:1;"/>
<stop offset="1" stop-color="#212121" stop-opacity="0" style="stop-color:none;stop-opacity:0;"/>
</linearGradient>
<clipPath id="clip0_147_455">
<rect width="68" height="68" rx="17" fill="white" style="fill:white;fill-opacity:1;"/>
</clipPath>
<clipPath id="clip1_147_455">
<rect width="25" height="26" fill="white" style="fill:white;fill-opacity:1;" transform="translate(22 21.5)"/>
</clipPath>
</defs>
</svg>
